<svg xmlns="http://www.w3.org/2000/svg" style="display: none;">

  <symbol id="menu" viewBox="0 0 24 24">
    <path d="M0 0h24v24H0V0z" fill="none"/>
    <path d="M3 18h18v-2H3v2zm0-5h18v-2H3v2zm0-7v2h18V6H3z"/>
  </symbol>

  <symbol id="close" viewBox="0 0 24 24">
    <path d="M0 0h24v24H0V0z" fill="none"/>
    <path d="M19 6.41 17.59 5 12 10.59 6.41 5 5 6.41 10.59 12 5 17.59 6.41 19 12 13.41 17.59 19 19 17.59 13.41 12 19 6.41z"/>
  </symbol>

  <symbol id="caret-down" viewBox="0 -960 960 960">
    <path d="M480-345 240-585l43-43 197 198 197-197 43 43-240 239Z"/>
  </symbol>

</svg>